{
  "accessors": [
    {
      "bufferView": 2,
      "componentType": 5126,
      "count": 20646,
      "max": [
        0.20000003278255463,
        0.39840686321258545,
        0.0806412547826767
      ],
      "min": [
        -0.20000000298023224,
        0.0,
        -0.0806412547826767
      ],
      "type": "VEC3"
    },
    {
      "bufferView": 2,
      "byteOffset": 247752,
      "componentType": 5126,
      "count": 20646,
      "max": [
        0.9258156418800354,
        1.0,
        1.0
      ],
      "min": [
        -0.9258155822753906,
        -0.3779755234718323,
        -1.0
      ],
      "type": "VEC3"
    },
    {
      "bufferView": 1,
      "componentType": 5126,
      "count": 20646,
      "max": [
        8.48715877532959,
        8.499999046325684
      ],
      "min": [
        -7.488669395446777,
        -7.499999046325684
      ],
      "type": "VEC2"
    },
    {
      "bufferView": 0,
      "componentType": 5125,
      "count": 119304,
      "type": "SCALAR"
    },
    {
      "bufferView": 2,
      "byteOffset": 495504,
      "componentType": 5126,
      "count": 4369,
      "max": [
        0.10328181087970734,
        0.010646960698068142,
        0.009467149153351784
      ],
      "min": [
        -0.002284351037815213,
        -0.07950673997402191,
        -0.015469860285520554
      ],
      "type": "VEC3"
    },
    {
      "bufferView": 2,
      "byteOffset": 547932,
      "componentType": 5126,
      "count": 4369,
      "max": [
        0.9999167919158936,
        0.9979354739189148,
        0.9955076575279236
      ],
      "min": [
        -0.9999431371688843,
        -0.9991719126701355,
        -0.9961843490600586
      ],
      "type": "VEC3"
    },
    {
      "bufferView": 1,
      "byteOffset": 165168,
      "componentType": 5126,
      "count": 4369,
      "max": [
        0.8969229459762573,
        0.9999999403953552
      ],
      "min": [
        0.0,
        0.0
      ],
      "type": "VEC2"
    },
    {
      "bufferView": 0,
      "byteOffset": 477216,
      "componentType": 5125,
      "count": 19590,
      "type": "SCALAR"
    },
    {
      "bufferView": 2,
      "byteOffset": 600360,
      "componentType": 5126,
      "count": 4369,
      "max": [
        0.10328181087970734,
        0.010646960698068142,
        0.009467149153351784
      ],
      "min": [
        -0.002284351037815213,
        -0.07949671149253845,
        -0.015469860285520554
      ],
      "type": "VEC3"
    },
    {
      "bufferView": 2,
      "byteOffset": 652788,
      "componentType": 5126,
      "count": 4369,
      "max": [
        0.9999167919158936,
        0.9979354739189148,
        0.9955076575279236
      ],
      "min": [
        -0.9999431371688843,
        -0.9991719126701355,
        -0.9961843490600586
      ],
      "type": "VEC3"
    },
    {
      "bufferView": 1,
      "byteOffset": 200120,
      "componentType": 5126,
      "count": 4369,
      "max": [
        0.8969229459762573,
        0.9999999403953552
      ],
      "min": [
        0.0,
        0.0
      ],
      "type": "VEC2"
    },
    {
      "bufferView": 0,
      "byteOffset": 555576,
      "componentType": 5125,
      "count": 19590,
      "type": "SCALAR"
    },
    {
      "bufferView": 2,
      "byteOffset": 705216,
      "componentType": 5126,
      "count": 4225,
      "max": [
        3.840000629425049,
        -0.8222870826721191,
        2.15000057220459
      ],
      "min": [
        -3.8400003910064697,
        -1.0112252235412598,
        -2.1700005531311035
      ],
      "type": "VEC3"
    },
    {
      "bufferView": 2,
      "byteOffset": 755916,
      "componentType": 5126,
      "count": 4225,
      "max": [
        9.757288353284821e-05,
        0.9990526437759399,
        -0.04352020472288132
      ],
      "min": [
        9.327381121693179e-05,
        0.9990522265434265,
        -0.04352772235870361
      ],
      "type": "VEC3"
    },
    {
      "bufferView": 1,
      "byteOffset": 235072,
      "componentType": 5126,
      "count": 4225,
      "max": [
        1.0000001192092896,
        1.0000001192092896
      ],
      "min": [
        0.0,
        0.0
      ],
      "type": "VEC2"
    },
    {
      "bufferView": 0,
      "byteOffset": 633936,
      "componentType": 5125,
      "count": 24576,
      "type": "SCALAR"
    },
    {
      "bufferView": 2,
      "byteOffset": 806616,
      "componentType": 5126,
      "count": 4225,
      "max": [
        3.840000629425049,
        -1.2418649196624756,
        2.15000057220459
      ],
      "min": [
        -3.840000629425049,
        -1.430802583694458,
        -2.169999599456787
      ],
      "type": "VEC3"
    },
    {
      "bufferView": 2,
      "byteOffset": 857316,
      "componentType": 5126,
      "count": 4225,
      "max": [
        9.878670971374959e-05,
        0.9990527629852295,
        -0.04351766034960747
      ],
      "min": [
        9.281390521209687e-05,
        0.9990522265434265,
        -0.04352781921625137
      ],
      "type": "VEC3"
    },
    {
      "bufferView": 1,
      "byteOffset": 268872,
      "componentType": 5126,
      "count": 4225,
      "max": [
        1.0000001192092896,
        1.0000001192092896
      ],
      "min": [
        0.0,
        0.0
      ],
      "type": "VEC2"
    },
    {
      "bufferView": 0,
      "byteOffset": 732240,
      "componentType": 5125,
      "count": 24576,
      "type": "SCALAR"
    },
    {
      "bufferView": 2,
      "byteOffset": 908016,
      "componentType": 5126,
      "count": 20646,
      "max": [
        0.20000003278255463,
        0.39840686321258545,
        0.0806412547826767
      ],
      "min": [
        -0.20000000298023224,
        0.0,
        -0.0806412547826767
      ],
      "type": "VEC3"
    },
    {
      "bufferView": 2,
      "byteOffset": 1155768,
      "componentType": 5126,
      "count": 20646,
      "max": [
        0.9258156418800354,
        1.0,
        1.0
      ],
      "min": [
        -0.9258155822753906,
        -0.3779755234718323,
        -1.0
      ],
      "type": "VEC3"
    },
    {
      "bufferView": 1,
      "byteOffset": 302672,
      "componentType": 5126,
      "count": 20646,
      "max": [
        8.48715877532959,
        8.499999046325684
      ],
      "min": [
        -7.488669395446777,
        -7.499999046325684
      ],
      "type": "VEC2"
    },
    {
      "bufferView": 0,
      "byteOffset": 830544,
      "componentType": 5125,
      "count": 119304,
      "type": "SCALAR"
    },
    {
      "bufferView": 2,
      "byteOffset": 1403520,
      "componentType": 5126,
      "count": 4369,
      "max": [
        0.10328181087970734,
        0.010646960698068142,
        0.009467149153351784
      ],
      "min": [
        -0.002284351037815213,
        -0.07950673997402191,
        -0.015469860285520554
      ],
      "type": "VEC3"
    },
    {
      "bufferView": 2,
      "byteOffset": 1455948,
      "componentType": 5126,
      "count": 4369,
      "max": [
        0.9999167919158936,
        0.9979354739189148,
        0.9955076575279236
      ],
      "min": [
        -0.9999431371688843,
        -0.9991719126701355,
        -0.9961843490600586
      ],
      "type": "VEC3"
    },
    {
      "bufferView": 1,
      "byteOffset": 467840,
      "componentType": 5126,
      "count": 4369,
      "max": [
        0.8969229459762573,
        0.9999999403953552
      ],
      "min": [
        0.0,
        0.0
      ],
      "type": "VEC2"
    },
    {
      "bufferView": 0,
      "byteOffset": 1307760,
      "componentType": 5125,
      "count": 19590,
      "type": "SCALAR"
    },
    {
      "bufferView": 2,
      "byteOffset": 1508376,
      "componentType": 5126,
      "count": 4369,
      "max": [
        0.10328181087970734,
        0.010646960698068142,
        0.009467149153351784
      ],
      "min": [
        -0.002284351037815213,
        -0.07949671149253845,
        -0.015469860285520554
      ],
      "type": "VEC3"
    },
    {
      "bufferView": 2,
      "byteOffset": 1560804,
      "componentType": 5126,
      "count": 4369,
      "max": [
        0.9999167919158936,
        0.9979354739189148,
        0.9955076575279236
      ],
      "min": [
        -0.9999431371688843,
        -0.9991719126701355,
        -0.9961843490600586
      ],
      "type": "VEC3"
    },
    {
      "bufferView": 1,
      "byteOffset": 502792,
      "componentType": 5126,
      "count": 4369,
      "max": [
        0.8969229459762573,
        0.9999999403953552
      ],
      "min": [
        0.0,
        0.0
      ],
      "type": "VEC2"
    },
    {
      "bufferView": 0,
      "byteOffset": 1386120,
      "componentType": 5125,
      "count": 19590,
      "type": "SCALAR"
    },
    {
      "bufferView": 2,
      "byteOffset": 1613232,
      "componentType": 5126,
      "count": 4225,
      "max": [
        3.840000629425049,
        -0.8222870826721191,
        2.15000057220459
      ],
      "min": [
        -3.8400003910064697,
        -1.0112252235412598,
        -2.1700005531311035
      ],
      "type": "VEC3"
    },
    {
      "bufferView": 2,
      "byteOffset": 1663932,
      "componentType": 5126,
      "count": 4225,
      "max": [
        9.757288353284821e-05,
        0.9990526437759399,
        -0.04352020472288132
      ],
      "min": [
        9.327381121693179e-05,
        0.9990522265434265,
        -0.04352772235870361
      ],
      "type": "VEC3"
    },
    {
      "bufferView": 1,
      "byteOffset": 537744,
      "componentType": 5126,
      "count": 4225,
      "max": [
        1.0000001192092896,
        1.0000001192092896
      ],
      "min": [
        0.0,
        0.0
      ],
      "type": "VEC2"
    },
    {
      "bufferView": 0,
      "byteOffset": 1464480,
      "componentType": 5125,
      "count": 24576,
      "type": "SCALAR"
    },
    {
      "bufferView": 2,
      "byteOffset": 1714632,
      "componentType": 5126,
      "count": 4225,
      "max": [
        3.840000629425049,
        -1.2418649196624756,
        2.15000057220459
      ],
      "min": [
        -3.840000629425049,
        -1.430802583694458,
        -2.169999599456787
      ],
      "type": "VEC3"
    },
    {
      "bufferView": 2,
      "byteOffset": 1765332,
      "componentType": 5126,
      "count": 4225,
      "max": [
        9.878670971374959e-05,
        0.9990527629852295,
        -0.04351766034960747
      ],
      "min": [
        9.281390521209687e-05,
        0.9990522265434265,
        -0.04352781921625137
      ],
      "type": "VEC3"
    },
    {
      "bufferView": 1,
      "byteOffset": 571544,
      "componentType": 5126,
      "count": 4225,
      "max": [
        1.0000001192092896,
        1.0000001192092896
      ],
      "min": [
        0.0,
        0.0
      ],
      "type": "VEC2"
    },
    {
      "bufferView": 0,
      "byteOffset": 1562784,
      "componentType": 5125,
      "count": 24576,
      "type": "SCALAR"
    }
  ],
  "asset": {
    "extras": {
      "author": "mfb64 (https://sketchfab.com/mfb64)",
      "license": "CC-BY-4.0 (http://creativecommons.org/licenses/by/4.0/)",
      "source": "https://sketchfab.com/3d-models/shopping-bags-19b43e6c44a94ad3a0c9ad112d158ce3",
      "title": "SHOPPING BAGS"
    },
    "generator": "Sketchfab-14.1.2",
    "version": "2.0"
  },
  "bufferViews": [
    {
      "buffer": 0,
      "byteLength": 1661088,
      "name": "floatBufferViews",
      "target": 34963
    },
    {
      "buffer": 0,
      "byteLength": 605344,
      "byteOffset": 1661088,
      "byteStride": 8,
      "name": "floatBufferViews",
      "target": 34962
    },
    {
      "buffer": 0,
      "byteLength": 1816032,
      "byteOffset": 2266432,
      "byteStride": 12,
      "name": "floatBufferViews",
      "target": 34962
    }
  ],
  "buffers": [
    {
      "byteLength": 4082464,
      "uri": "scene.bin"
    }
  ],
  "extensionsRequired": [
    "KHR_materials_pbrSpecularGlossiness"
  ],
  "extensionsUsed": [
    "KHR_materials_pbrSpecularGlossiness"
  ],
  "images": [
    {
      "uri": "textures/Paper_diffuse.jpeg"
    },
    {
      "uri": "textures/Prada-Logo.png_diffuse.png"
    },
    {
      "uri": "textures/Paper.001_diffuse.jpeg"
    },
    {
      "uri": "textures/Prada-Logo.png.001_diffuse.png"
    }
  ],
  "materials": [
    {
      "doubleSided": true,
      "extensions": {
        "KHR_materials_pbrSpecularGlossiness": {
          "diffuseFactor": [
            1.0,
            1.0,
            1.0,
            1.0
          ],
          "diffuseTexture": {
            "index": 0
          },
          "glossinessFactor": 0.5,
          "specularFactor": [
            0.0,
            0.0,
            0.0
          ]
        }
      },
      "name": "Paper"
    },
    {
      "doubleSided": true,
      "extensions": {
        "KHR_materials_pbrSpecularGlossiness": {
          "diffuseFactor": [
            0.0,
            0.0,
            0.0,
            1.0
          ],
          "glossinessFactor": 0.19999999999999996,
          "specularFactor": [
            0.0,
            0.0,
            0.0
          ]
        }
      },
      "name": "Handle"
    },
    {
      "alphaCutoff": 0.1,
      "alphaMode": "MASK",
      "doubleSided": true,
      "extensions": {
        "KHR_materials_pbrSpecularGlossiness": {
          "diffuseFactor": [
            1.0,
            1.0,
            1.0,
            1.0
          ],
          "diffuseTexture": {
            "index": 1
          },
          "glossinessFactor": 0.0,
          "specularFactor": [
            1.0,
            1.0,
            1.0
          ]
        }
      },
      "name": "Prada-Logo.png"
    },
    {
      "doubleSided": true,
      "extensions": {
        "KHR_materials_pbrSpecularGlossiness": {
          "diffuseFactor": [
            1.0,
            1.0,
            1.0,
            1.0
          ],
          "diffuseTexture": {
            "index": 2
          },
          "glossinessFactor": 0.5,
          "specularFactor": [
            0.0,
            0.0,
            0.0
          ]
        }
      },
      "name": "Paper.001"
    },
    {
      "doubleSided": true,
      "extensions": {
        "KHR_materials_pbrSpecularGlossiness": {
          "diffuseFactor": [
            0.801362,
            0.801362,
            0.801362,
            1.0
          ],
          "glossinessFactor": 0.19999999999999996,
          "specularFactor": [
            0.0,
            0.0,
            0.0
          ]
        }
      },
      "name": "Handle.001"
    },
    {
      "alphaCutoff": 0.1,
      "alphaMode": "MASK",
      "doubleSided": true,
      "extensions": {
        "KHR_materials_pbrSpecularGlossiness": {
          "diffuseFactor": [
            1.0,
            1.0,
            1.0,
            1.0
          ],
          "diffuseTexture": {
            "index": 3
          },
          "glossinessFactor": 0.0,
          "specularFactor": [
            1.0,
            1.0,
            1.0
          ]
        }
      },
      "name": "Prada-Logo.png.001"
    }
  ],
  "meshes": [
    {
      "name": "Object_0",
      "primitives": [
        {
          "attributes": {
            "NORMAL": 1,
            "POSITION": 0,
            "TEXCOORD_0": 2
          },
          "indices": 3,
          "material": 0,
          "mode": 4
        }
      ]
    },
    {
      "name": "Object_1",
      "primitives": [
        {
          "attributes": {
            "NORMAL": 5,
            "POSITION": 4,
            "TEXCOORD_0": 6
          },
          "indices": 7,
          "material": 1,
          "mode": 4
        }
      ]
    },
    {
      "name": "Object_2",
      "primitives": [
        {
          "attributes": {
            "NORMAL": 9,
            "POSITION": 8,
            "TEXCOORD_0": 10
          },
          "indices": 11,
          "material": 1,
          "mode": 4
        }
      ]
    },
    {
      "name": "Object_3",
      "primitives": [
        {
          "attributes": {
            "NORMAL": 13,
            "POSITION": 12,
            "TEXCOORD_0": 14
          },
          "indices": 15,
          "material": 2,
          "mode": 4
        }
      ]
    },
    {
      "name": "Object_4",
      "primitives": [
        {
          "attributes": {
            "NORMAL": 17,
            "POSITION": 16,
            "TEXCOORD_0": 18
          },
          "indices": 19,
          "material": 2,
          "mode": 4
        }
      ]
    },
    {
      "name": "Object_5",
      "primitives": [
        {
          "attributes": {
            "NORMAL": 21,
            "POSITION": 20,
            "TEXCOORD_0": 22
          },
          "indices": 23,
          "material": 3,
          "mode": 4
        }
      ]
    },
    {
      "name": "Object_6",
      "primitives": [
        {
          "attributes": {
            "NORMAL": 25,
            "POSITION": 24,
            "TEXCOORD_0": 26
          },
          "indices": 27,
          "material": 4,
          "mode": 4
        }
      ]
    },
    {
      "name": "Object_7",
      "primitives": [
        {
          "attributes": {
            "NORMAL": 29,
            "POSITION": 28,
            "TEXCOORD_0": 30
          },
          "indices": 31,
          "material": 4,
          "mode": 4
        }
      ]
    },
    {
      "name": "Object_8",
      "primitives": [
        {
          "attributes": {
            "NORMAL": 33,
            "POSITION": 32,
            "TEXCOORD_0": 34
          },
          "indices": 35,
          "material": 5,
          "mode": 4
        }
      ]
    },
    {
      "name": "Object_9",
      "primitives": [
        {
          "attributes": {
            "NORMAL": 37,
            "POSITION": 36,
            "TEXCOORD_0": 38
          },
          "indices": 39,
          "material": 5,
          "mode": 4
        }
      ]
    }
  ],
  "nodes": [
    {
      "children": [
        1
      ],
      "matrix": [
        1.0,
        0.0,
        0.0,
        0.0,
        0.0,
        2.220446049250313e-16,
        -1.0,
        0.0,
        0.0,
        1.0,
        2.220446049250313e-16,
        0.0,
        0.0,
        0.0,
        0.0,
        1.0
      ],
      "name": "Sketchfab_model"
    },
    {
      "children": [
        2
      ],
      "name": "root"
    },
    {
      "children": [
        3,
        13
      ],
      "matrix": [
        1.0,
        0.0,
        0.0,
        0.0,
        0.0,
        2.220446049250313e-16,
        1.0,
        0.0,
        0.0,
        -1.0,
        2.220446049250313e-16,
        0.0,
        0.0,
        0.0,
        0.0,
        1.0
      ],
      "name": "GLTF_SceneRootNode"
    },
    {
      "children": [
        4,
        5,
        7,
        9,
        11
      ],
      "name": "Bag.white_4"
    },
    {
      "mesh": 0,
      "name": "Object_4"
    },
    {
      "children": [
        6
      ],
      "matrix": [
        -0.9999999999999467,
        0.0,
        3.258413698858844e-07,
        0.0,
        0.0,
        1.0,
        0.0,
        0.0,
        -3.258413698858844e-07,
        0.0,
        -0.9999999999999467,
        0.0,
        0.050341926515102386,
        0.35707589983940125,
        0.06066406890749931,
        1.0
      ],
      "name": "C.001_0"
    },
    {
      "mesh": 1,
      "name": "Object_6"
    },
    {
      "children": [
        8
      ],
      "matrix": [
        1.0,
        0.0,
        0.0,
        0.0,
        0.0,
        1.0,
        0.0,
        0.0,
        0.0,
        0.0,
        1.0,
        0.0,
        -0.05049958825111389,
        0.35707589983940125,
        -0.060565631836652756,
        1.0
      ],
      "name": "C.002_1"
    },
    {
      "mesh": 2,
      "name": "Object_8"
    },
    {
      "children": [
        10
      ],
      "matrix": [
        0.028553429858550968,
        -1.3082968444010423e-13,
        2.7502980869500294e-06,
        0.0,
        -2.750298074194422e-06,
        2.7486501186551213e-06,
        0.02855342972625377,
        0.0,
        -2.6488386164529005e-10,
        -0.028553429858709654,
        2.7486501058924295e-06,
        0.0,
        0.0,
        0.17956390976905823,
        0.08835699409246445,
        1.0
      ],
      "name": "Prada.001_2"
    },
    {
      "mesh": 3,
      "name": "Object_10"
    },
    {
      "children": [
        12
      ],
      "matrix": [
        -0.028595503287227306,
        4.289535097538273e-14,
        -2.7518507765904874e-06,
        0.0,
        2.7518507638444098e-06,
        2.7527002497410707e-06,
        -0.028595503154735167,
        0.0,
        2.648596037874526e-10,
        -0.02859550328714554,
        -2.7527002370008447e-06,
        0.0,
        0.0,
        0.17989332973957062,
        -0.10037937760353088,
        1.0
      ],
      "name": "Prada.002_3"
    },
    {
      "mesh": 4,
      "name": "Object_12"
    },
    {
      "children": [
        14,
        15,
        17,
        19,
        21
      ],
      "matrix": [
        1.0,
        0.0,
        0.0,
        0.0,
        0.0,
        1.0,
        0.0,
        0.0,
        0.0,
        0.0,
        1.0,
        0.0,
        -0.32286274433135986,
        0.0,
        -0.2350359559059143,
        1.0
      ],
      "name": "Bag.black_9"
    },
    {
      "mesh": 5,
      "name": "Object_14"
    },
    {
      "children": [
        16
      ],
      "matrix": [
        -0.9999999999999467,
        0.0,
        3.258413698858844e-07,
        0.0,
        0.0,
        1.0,
        0.0,
        0.0,
        -3.258413698858844e-07,
        0.0,
        -0.9999999999999467,
        0.0,
        0.050341926515102386,
        0.35707589983940125,
        0.06066406890749931,
        1.0
      ],
      "name": "C.003_5"
    },
    {
      "mesh": 6,
      "name": "Object_16"
    },
    {
      "children": [
        18
      ],
      "matrix": [
        1.0,
        0.0,
        0.0,
        0.0,
        0.0,
        1.0,
        0.0,
        0.0,
        0.0,
        0.0,
        1.0,
        0.0,
        -0.05049958825111389,
        0.35707589983940125,
        -0.060565631836652756,
        1.0
      ],
      "name": "C.004_6"
    },
    {
      "mesh": 7,
      "name": "Object_18"
    },
    {
      "children": [
        20
      ],
      "matrix": [
        0.028553429858550968,
        -1.3082968444010423e-13,
        2.7502980869500294e-06,
        0.0,
        -2.750298074194422e-06,
        2.7486501186551213e-06,
        0.02855342972625377,
        0.0,
        -2.6488386164529005e-10,
        -0.028553429858709654,
        2.7486501058924295e-06,
        0.0,
        0.0,
        0.17956390976905823,
        0.08835699409246445,
        1.0
      ],
      "name": "Prada.003_7"
    },
    {
      "mesh": 8,
      "name": "Object_20"
    },
    {
      "children": [
        22
      ],
      "matrix": [
        -0.028595503287227306,
        4.289535097538273e-14,
        -2.7518507765904874e-06,
        0.0,
        2.7518507638444098e-06,
        2.7527002497410707e-06,
        -0.028595503154735167,
        0.0,
        2.648596037874526e-10,
        -0.02859550328714554,
        -2.7527002370008447e-06,
        0.0,
        0.0,
        0.17989332973957062,
        -0.10037937760353088,
        1.0
      ],
      "name": "Prada.004_8"
    },
    {
      "mesh": 9,
      "name": "Object_22"
    }
  ],
  "samplers": [
    {
      "magFilter": 9729,
      "minFilter": 9987,
      "wrapS": 10497,
      "wrapT": 10497
    }
  ],
  "scene": 0,
  "scenes": [
    {
      "name": "Sketchfab_Scene",
      "nodes": [
        0
      ]
    }
  ],
  "textures": [
    {
      "sampler": 0,
      "source": 0
    },
    {
      "sampler": 0,
      "source": 1
    },
    {
      "sampler": 0,
      "source": 2
    },
    {
      "sampler": 0,
      "source": 3
    }
  ]
}
